<?xml version="1.0" encoding="UTF-8" standalone="no"?>
<!-- Created with Inkscape (http://www.inkscape.org/) -->

<svg
   xmlns:dc="http://purl.org/dc/elements/1.1/"
   xmlns:cc="http://creativecommons.org/ns#"
   xmlns:rdf="http://www.w3.org/1999/02/22-rdf-syntax-ns#"
   xmlns:svg="http://www.w3.org/2000/svg"
   xmlns="http://www.w3.org/2000/svg"
   xmlns:sodipodi="http://sodipodi.sourceforge.net/DTD/sodipodi-0.dtd"
   xmlns:inkscape="http://www.inkscape.org/namespaces/inkscape"
   width="512"
   height="512"
   id="svg3255"
   version="1.1"
   inkscape:version="0.48.4 r9939"
   sodipodi:docname="responsive.svg"
   inkscape:export-filename="C:\Documents and Settings\bstawarz\Bureau\Projects\Projet Site\v1.0\Responsive.png"
   inkscape:export-xdpi="90"
   inkscape:export-ydpi="90">
  <defs
     id="defs3257" />
  <sodipodi:namedview
     id="base"
     pagecolor="#ffffff"
     bordercolor="#666666"
     borderopacity="1.0"
     inkscape:pageopacity="0.0"
     inkscape:pageshadow="2"
     inkscape:zoom="0.49497474"
     inkscape:cx="297.73382"
     inkscape:cy="116.48613"
     inkscape:document-units="px"
     inkscape:current-layer="layer1"
     showgrid="false"
     inkscape:window-width="1233"
     inkscape:window-height="613"
     inkscape:window-x="321"
     inkscape:window-y="285"
     inkscape:window-maximized="0" />
  <metadata
     id="metadata3260">
    <rdf:RDF>
      <cc:Work
         rdf:about="">
        <dc:format>image/svg+xml</dc:format>
        <dc:type
           rdf:resource="http://purl.org/dc/dcmitype/StillImage" />
        <dc:title />
      </cc:Work>
    </rdf:RDF>
  </metadata>
  <g
     inkscape:label="Calque 1"
     inkscape:groupmode="layer"
     id="layer1"
     transform="translate(0,-540.36218)">
    <g
       id="g3003"
       transform="matrix(1.5,0,0,1.5,-719,-69.681098)">
      <g
         transform="matrix(0.25,0,0,0.25,550,383.02164)"
         id="g4172">
        <rect
           style="color:#000000;fill:#222222;fill-opacity:1;fill-rule:nonzero;stroke:none;stroke-width:1.44799995;marker:none;visibility:visible;display:inline;overflow:visible;enable-background:accumulate"
           id="rect3263"
           width="900"
           height="700"
           x="0"
           y="352.36218" />
        <rect
           style="color:#000000;fill:#ffffff;fill-opacity:1;fill-rule:nonzero;stroke:none;stroke-width:1.44819915;marker:none;visibility:visible;display:inline;overflow:visible;enable-background:accumulate"
           id="rect3263-1"
           width="800"
           height="600"
           x="50"
           y="402.36218" />
      </g>
      <g
         transform="matrix(0.25,0,0,0.25,562.55979,374.36281)"
         id="g4167">
        <rect
           style="color:#000000;fill:#222222;fill-opacity:1;fill-rule:nonzero;stroke:none;stroke-width:1.44819915;marker:none;visibility:visible;display:inline;overflow:visible;enable-background:accumulate"
           id="rect3263-7"
           width="700"
           height="500"
           x="-250.23915"
           y="736.9975" />
        <rect
           style="color:#000000;fill:#ffffff;fill-opacity:1;fill-rule:nonzero;stroke:none;stroke-width:1.44819915;marker:none;visibility:visible;display:inline;overflow:visible;enable-background:accumulate"
           id="rect3263-1-4"
           width="550"
           height="400"
           x="-200.23915"
           y="786.9975" />
        <path
           sodipodi:type="arc"
           style="color:#000000;fill:#ffffff;fill-opacity:1;fill-rule:nonzero;stroke:none;stroke-width:1;marker:none;visibility:visible;display:inline;overflow:visible;enable-background:accumulate"
           id="path4072"
           sodipodi:cx="-562.85712"
           sodipodi:cy="736.64789"
           sodipodi:rx="177.14285"
           sodipodi:ry="75.714287"
           d="m -385.71426,736.64789 c 0,41.81584 -79.30956,75.71428 -177.14286,75.71428 -97.83329,0 -177.14285,-33.89844 -177.14285,-75.71428 0,-41.81585 79.30956,-75.71429 177.14285,-75.71429 97.8333,0 177.14286,33.89844 177.14286,75.71429 z"
           transform="matrix(0.11290323,0,0,0.26415094,463.30912,792.41143)" />
      </g>
      <rect
         y="597.36218"
         x="515"
         height="25"
         width="132.5"
         id="rect4182"
         style="color:#000000;fill:#cccccc;fill-opacity:1;fill-rule:nonzero;stroke:none;stroke-width:1.44799995;marker:none;visibility:visible;display:inline;overflow:visible;enable-background:accumulate" />
      <rect
         y="624.86218"
         x="515"
         height="43.75"
         width="42.5"
         id="rect4182-4"
         style="color:#000000;fill:#cccccc;fill-opacity:1;fill-rule:nonzero;stroke:none;stroke-width:1.44799995;marker:none;visibility:visible;display:inline;overflow:visible;enable-background:accumulate" />
      <rect
         y="624.86218"
         x="560"
         height="43.75"
         width="42.5"
         id="rect4182-4-5"
         style="color:#000000;fill:#cccccc;fill-opacity:1;fill-rule:nonzero;stroke:none;stroke-width:1.44799995;marker:none;visibility:visible;display:inline;overflow:visible;enable-background:accumulate" />
      <rect
         y="624.86218"
         x="605"
         height="43.75"
         width="42.5"
         id="rect4182-4-51"
         style="color:#000000;fill:#cccccc;fill-opacity:1;fill-rule:nonzero;stroke:none;stroke-width:1.44799995;marker:none;visibility:visible;display:inline;overflow:visible;enable-background:accumulate" />
      <rect
         y="514.86218"
         x="565"
         height="25"
         width="195"
         id="rect4182-1"
         style="color:#000000;fill:#cccccc;fill-opacity:1;fill-rule:nonzero;stroke:none;stroke-width:1.44799995;marker:none;visibility:visible;display:inline;overflow:visible;enable-background:accumulate" />
      <rect
         y="542.36218"
         x="565"
         height="16.25"
         width="46.875"
         id="rect4182-4-1"
         style="color:#000000;fill:#cccccc;fill-opacity:1;fill-rule:nonzero;stroke:none;stroke-width:1.44799995;marker:none;visibility:visible;display:inline;overflow:visible;enable-background:accumulate" />
      <rect
         y="542.36218"
         x="614.375"
         height="16.25"
         width="46.875"
         id="rect4182-4-5-5"
         style="color:#000000;fill:#cccccc;fill-opacity:1;fill-rule:nonzero;stroke:none;stroke-width:1.44799995;marker:none;visibility:visible;display:inline;overflow:visible;enable-background:accumulate" />
      <path
         inkscape:connector-curvature="0"
         id="rect4182-4-51-2"
         d="m 663.75,542.36218 0,16.25 11.25,0 0,72.5 35.625,0 0,-88.75 -46.875,0 z"
         style="color:#000000;fill:#cccccc;fill-opacity:1;fill-rule:nonzero;stroke:none;stroke-width:1.44799995;marker:none;visibility:visible;display:inline;overflow:visible;enable-background:accumulate" />
      <rect
         y="542.36218"
         x="713.125"
         height="88.75"
         width="46.875"
         id="rect4182-4-51-2-2"
         style="color:#000000;fill:#cccccc;fill-opacity:1;fill-rule:nonzero;stroke:none;stroke-width:1.44799995;marker:none;visibility:visible;display:inline;overflow:visible;enable-background:accumulate" />
      <g
         transform="matrix(0.25,0,0,0.25,551.4308,374.45146)"
         id="g4163">
        <path
           style="color:#000000;fill:#222222;fill-opacity:1;fill-rule:nonzero;stroke:none;stroke-width:1.44819915;marker:none;visibility:visible;display:inline;overflow:visible;enable-background:accumulate"
           d="m 819.27679,836.64286 c -1.72589,0 -3.40381,0.167 -5.03125,0.5 -1.62744,0.333 -3.19202,0.8361 -4.6875,1.4688 -1.49548,0.6325 -2.91999,1.4139 -4.25,2.3124 -1.33001,0.8986 -2.55647,1.9003 -3.6875,3.0313 -1.13103,1.131 -2.16396,2.3888 -3.0625,3.7187 -0.89854,1.3302 -1.67997,2.7547 -2.3125,4.25 -0.63253,1.4955 -1.10448,3.06 -1.4375,4.6876 -0.33302,1.6273 -0.53125,3.3053 -0.53125,5.0312 l 0,300.00004 c 0,1.7259 0.19823,3.404 0.53125,5.0312 0.33302,1.6277 0.80497,3.2233 1.4375,4.7188 0.63253,1.4955 1.41396,2.8885 2.3125,4.2188 0.89854,1.3298 1.93147,2.5877 3.0625,3.7187 1.13103,1.131 2.35749,2.164 3.6875,3.0625 1.33001,0.8985 2.75452,1.6489 4.25,2.2812 1.49548,0.6327 3.06006,1.1358 4.6875,1.4688 1.62744,0.333 3.30536,0.5 5.03125,0.5 l 150,0 c 1.72589,0 3.43506,-0.167 5.0625,-0.5 1.62744,-0.333 3.19202,-0.836 4.6875,-1.4688 1.49548,-0.6323 2.91999,-1.3827 4.25,-2.2812 1.33001,-0.8985 2.55647,-1.9315 3.6875,-3.0625 1.13103,-1.131 2.16396,-2.3889 3.0625,-3.7187 0.89854,-1.3302 1.64872,-2.7233 2.28125,-4.2188 0.63253,-1.4955 1.13573,-3.0911 1.46875,-4.7188 0.33302,-1.6273 0.5,-3.3053 0.5,-5.0312 l 0,-300.00004 c 0,-1.7259 -0.16698,-3.404 -0.5,-5.0312 -0.33302,-1.6277 -0.83622,-3.1921 -1.46875,-4.6876 -0.63253,-1.4953 -1.38271,-2.9198 -2.28125,-4.25 -0.89854,-1.3298 -1.93147,-2.5877 -3.0625,-3.7187 -1.13103,-1.131 -2.35749,-2.1327 -3.6875,-3.0313 -1.33001,-0.8985 -2.75452,-1.6799 -4.25,-2.3124 -1.49548,-0.6327 -3.06006,-1.1358 -4.6875,-1.4688 -1.62744,-0.333 -3.33661,-0.5 -5.0625,-0.5 l -150,0 z"
           id="path4101"
           inkscape:connector-curvature="0" />
        <rect
           style="color:#000000;fill:#ffffff;fill-opacity:1;fill-rule:nonzero;stroke:none;stroke-width:1.44819915;marker:none;visibility:visible;display:inline;overflow:visible;enable-background:accumulate"
           id="rect3263-1-4-9"
           width="150"
           height="250"
           x="819.28571"
           y="886.64288" />
      </g>
      <rect
         y="611.11218"
         x="758.75"
         height="17.5"
         width="32.5"
         id="rect4182-16"
         style="color:#000000;fill:#cccccc;fill-opacity:1;fill-rule:nonzero;stroke:none;stroke-width:1.44799995;marker:none;visibility:visible;display:inline;overflow:visible;enable-background:accumulate" />
      <rect
         y="631.11218"
         x="758.75"
         height="27.5"
         width="32.5"
         id="rect4182-16-8"
         style="color:#000000;fill:#cccccc;fill-opacity:1;fill-rule:nonzero;stroke:none;stroke-width:1.44799995;marker:none;visibility:visible;display:inline;overflow:visible;enable-background:accumulate" />
    </g>
  </g>
</svg>
